<svg xmlns="http://www.w3.org/2000/svg" height="800" width="1200" viewBox="-586.8312 -255.9995 5085.8704 1535.997"><path d="M3522.471 853.332h-336.436c-189.112 0-205.93-155.871-205.93-203.487 0-47.616 16.818-203.488 205.93-203.488h336.436c189.125 0 205.942 155.872 205.942 203.488 0 47.616-16.817 203.487-205.942 203.487m7.313-577.641h-337.92c-351.18 0-382.425 286.588-382.425 374.154 0 87.565 31.245 374.153 382.425 374.153h337.92c351.192 0 382.424-286.588 382.424-374.153 0-87.566-31.232-374.154-382.424-374.154m-787.889 26.256H2632.34c-46.92 0-56.583 7.89-74.674 34.383-18.117 26.48-331.46 498.373-331.46 498.373-10.004 14.506-20.612 20.375-33.793 20.375-13.193 0-23.788-5.869-33.778-20.375 0 0-313.37-471.894-331.474-498.373-18.091-26.506-27.753-34.383-74.674-34.383h-109.555c-25.206 0-36.759 19.443-20.9 43.192l374.26 560.548c58.065 84.257 100.68 118.311 196.121 118.311 95.443 0 138.057-34.054 196.136-118.311l374.246-560.548c15.858-23.75 4.332-43.192-20.9-43.192m-1442.2 45.778c0-32.794 12.8-45.778 45.109-45.778h80.463c32.295 0 45.095 12.997 45.095 45.778v630.482c0 32.794-12.8 45.791-45.095 45.791h-80.463c-32.295 0-45.108-12.997-45.108-45.79zm-6.721-199.772c-26.046-26.033-26.046-46.684 0-72.73l55.677-55.677c26.046-26.06 46.697-26.06 72.743-.013l55.703 55.677c26.033 26.06 26.033 46.71 0 72.756l-55.703 55.677c-26.046 26.046-46.697 26.046-72.73 0l-55.69-55.677zm-166.44 153.994h-109.436c-46.868 0-56.53 7.903-74.595 34.383-18.09 26.48-331.12 498.36-331.12 498.36-9.977 14.506-20.571 20.375-33.739 20.375-13.194 0-23.775-5.869-33.765-20.375 0 0-313.03-471.894-331.094-498.373-18.064-26.467-27.727-34.37-74.594-34.37H28.754c-28.12 0-36.72 19.443-20.874 43.192C23.7 368.9 381.72 905.674 381.72 905.674c58.013 84.27 100.601 118.324 195.925 118.324 95.311 0 137.912-34.054 195.912-118.324l373.852-560.535c15.833-23.75 7.247-43.192-20.873-43.192" fill="#415fff"/></svg>